<?xml version="1.0" encoding="UTF-8"?>
<svg width="80px" height="80px" viewBox="0 0 80 80" version="1.1" xmlns="http://www.w3.org/2000/svg" xmlns:xlink="http://www.w3.org/1999/xlink">
    <!-- Generator: Sketch 62 (91390) - https://sketch.com -->
    <title>external</title>
    <desc>Created with Sketch.</desc>
    <g id="Page-1" stroke="none" stroke-width="1" fill="none" fill-rule="evenodd">
        <g id="external" fill="#FFFFFF" fill-rule="nonzero">
            <path d="M77.12,0.509974964 L46.18,0.509974964 C45.0754305,0.509974964 44.18,1.4054305 44.18,2.51 L44.18,10.51 C44.18,11.6145695 45.0754305,12.51 46.18,12.51 L58.64,12.51 L32.64,37.59 C32.2582843,37.9659148 32.0433442,38.4792587 32.0433442,39.015 C32.0433442,39.5507413 32.2582843,40.0640852 32.64,40.44 L38.29,46.1 C39.0688944,46.8688434 40.3211056,46.8688434 41.1,46.1 L67.13,21 L67.13,33 C67.13,34.1045695 68.0254305,35 69.13,35 L77.13,35 C78.2345695,35 79.13,34.1045695 79.13,33 L79.13,2.51 C79.13,1.97782985 78.9179208,1.46760067 78.5406825,1.09223913 C78.1634441,0.716877584 77.6521635,0.507339149 77.12,0.509974964 Z" id="Path"></path>
            <path d="M77.13,45.51 L69.13,45.51 C68.6137269,45.4938599 68.1123327,45.6842696 67.7369161,46.0390382 C67.3614996,46.3938069 67.1430603,46.8836398 67.13,47.4 L67.13,67.59 L12.05,67.59 L12.05,12.47 L32.23,12.47 C32.7463602,12.4569397 33.2361931,12.2385004 33.5909618,11.8630839 C33.9457304,11.4876673 34.1361401,10.9862731 34.12,10.47 L34.12,2.47 C34.1361401,1.95372693 33.9457304,1.45233269 33.5909618,1.07691613 C33.2361931,0.701499564 32.7463602,0.483060276 32.23,0.47 L2,0.47 C1.52807218,0.471455648 1.07559247,0.658193305 0.74,0.99 L0.68,1.04 L0.63,1.1 C0.298193305,1.43559247 0.111455648,1.88807218 0.11,2.36 L0.11,77.66 C0.115635263,78.1310829 0.301752274,78.5820587 0.63,78.92 L0.68,78.98 L0.74,78.98 C1.07559247,79.3118067 1.52807218,79.4985444 2,79.5000222 L77.23,79.5000222 C77.7017794,79.5023139 78.1564231,79.3233203 78.5,79 L78.5,79 L78.56,78.94 C78.8854656,78.6010558 79.0680758,78.1499014 79.07,77.68 L79.07,47.4 C79.0428813,46.3481434 78.1822061,45.5096505 77.13,45.51 Z" id="Path"></path>
        </g>
    </g>
</svg>