<?xml version="1.0" encoding="UTF-8" standalone="no"?>
<svg width="151px" height="151px" viewBox="0 0 151 151" version="1.1" xmlns="http://www.w3.org/2000/svg" xmlns:xlink="http://www.w3.org/1999/xlink">
    <!-- Generator: Sketch 3.6.1 (26313) - http://www.bohemiancoding.com/sketch -->
    <title>Untitled</title>
    <desc>Created with Sketch.</desc>
    <defs></defs>
    <g id="Page-1" stroke="none" stroke-width="1" fill="none" fill-rule="evenodd">
        <g id="Doughnut" fill="#F1553E">
            <path d="M75,150 C33.5714286,150 0,116.428571 0,75 C0,33.5714286 33.75,0 75,0 C116.25,0 150,33.75 150,75 C150,116.25 116.428571,150 75,150 L75,150 Z M75,5.17857143 C36.6071429,5.17857143 5.35714286,36.4285714 5.35714286,74.8214286 C5.35714286,113.214286 36.6071429,144.464286 75,144.464286 C113.392857,144.464286 144.642857,113.214286 144.642857,74.8214286 C144.642857,36.6071429 113.392857,5.17857143 75,5.17857143 L75,5.17857143 Z" id="Fill-1"></path>
            <path d="M75,101.964286 C60,101.964286 47.8571429,89.8214286 47.8571429,74.8214286 C47.8571429,59.8214286 60,47.6785714 75,47.6785714 C90,47.6785714 102.142857,59.8214286 102.142857,74.8214286 C102.142857,89.8214286 90,101.964286 75,101.964286 L75,101.964286 Z M75,53.2142857 C63.0357143,53.2142857 53.2142857,63.0357143 53.2142857,75 C53.2142857,86.9642857 63.0357143,96.7857143 75,96.7857143 C86.9642857,96.7857143 96.7857143,86.9642857 96.7857143,75 C96.7857143,63.0357143 86.9642857,53.2142857 75,53.2142857 L75,53.2142857 Z" id="Fill-2"></path>
            <path d="M76.0714286,141.428571 C68.0357143,141.428571 61.6071429,136.607143 56.0714286,132.321429 C52.3214286,129.464286 48.75,126.785714 45.3571429,126.071429 C38.0357143,124.821429 14.4642857,118.392857 15.1785714,91.4285714 C15.3571429,81.4285714 14.4642857,73.9285714 13.5714286,67.8571429 C12.5,59.8214286 11.7857143,53.9285714 15,48.2142857 C17.6785714,43.3928571 21.4285714,41.6071429 24.4642857,39.8214286 C27.6785714,38.0357143 30.8928571,36.4285714 33.3928571,31.6071429 C43.0357143,14.1071429 52.1428571,14.4642857 61.7857143,14.8214286 C65.3571429,15 69.1071429,15.1785714 73.2142857,14.2857143 C105.357143,8.39285714 119.464286,25.1785714 127.857143,35.1785714 C134.821429,43.3928571 135.357143,51.0714286 136.25,60 C136.607143,64.2857143 136.964286,68.9285714 138.214286,74.1071429 C142.5,95.3571429 132.142857,112.142857 107.142857,124.464286 C101.964286,126.964286 97.6785714,130.178571 94.1071429,133.035714 C89.1071429,136.785714 84.8214286,140.178571 79.4642857,141.071429 C78.3928571,141.25 77.1428571,141.428571 76.0714286,141.428571 L76.0714286,141.428571 Z M57.6785714,20.1785714 C50.5357143,20.1785714 45,21.7857143 38.2142857,34.2857143 C34.8214286,40.5357143 30.7142857,42.6785714 26.9642857,44.6428571 C23.9285714,46.25 21.6071429,47.5 19.6428571,50.8928571 C17.3214286,55 17.8571429,59.4642857 18.9285714,67.1428571 C19.8214286,73.3928571 20.7142857,81.0714286 20.5357143,91.6071429 C20.3571429,98.9285714 22.5,116.607143 46.4285714,120.892857 C51.0714286,121.785714 55,124.821429 59.2857143,128.035714 C65.1785714,132.5 71.25,136.964286 78.5714286,135.892857 C82.6785714,135.178571 86.25,132.5 90.7142857,128.928571 C94.6428571,125.892857 98.9285714,122.678571 104.642857,119.821429 C127.5,108.571429 136.607143,94.1071429 132.678571,75.5357143 C131.428571,70 131.071429,65.1785714 130.714286,60.8928571 C130,52.1428571 129.464286,45.8928571 123.571429,39.1071429 C115.357143,29.2857143 103.035714,14.6428571 73.9285714,20 C69.2857143,20.8928571 65,20.7142857 61.4285714,20.5357143 C60.1785714,20.3571429 58.9285714,20.1785714 57.6785714,20.1785714 L57.6785714,20.1785714 Z" id="Fill-3"></path>
            <path d="M53.2142857,50 C52.8571429,50 52.5,50 52.1428571,49.8214286 C50.7142857,49.2857143 50.1785714,47.6785714 50.7142857,46.25 L53.9285714,38.75 C54.4642857,37.3214286 56.0714286,36.7857143 57.5,37.3214286 C58.9285714,37.8571429 59.4642857,39.4642857 58.9285714,40.8928571 L55.7142857,48.2142857 C55.3571429,49.2857143 54.2857143,50 53.2142857,50 L53.2142857,50 Z" id="Fill-4"></path>
            <path d="M79.6428571,35.3571429 C78.9285714,35.3571429 78.3928571,35.1785714 77.8571429,34.6428571 L71.7857143,29.1071429 C70.7142857,28.0357143 70.7142857,26.4285714 71.6071429,25.3571429 C72.5,24.2857143 74.2857143,24.2857143 75.3571429,25.1785714 L81.4285714,30.7142857 C82.5,31.7857143 82.5,33.3928571 81.6071429,34.4642857 C81.0714286,35.1785714 80.3571429,35.3571429 79.6428571,35.3571429 L79.6428571,35.3571429 Z" id="Fill-5"></path>
            <path d="M95.1785714,44.6428571 C95,44.6428571 95,44.6428571 95.1785714,44.6428571 L86.7857143,44.6428571 C85.3571429,44.6428571 84.1071429,43.3928571 84.1071429,41.9642857 C84.1071429,40.5357143 85.3571429,39.2857143 86.7857143,39.2857143 L95,39.4642857 C96.4285714,39.4642857 97.6785714,40.7142857 97.6785714,42.1428571 C97.6785714,43.5714286 96.6071429,44.6428571 95.1785714,44.6428571 L95.1785714,44.6428571 Z" id="Fill-6"></path>
            <path d="M76.9642857,127.5 C76.6071429,127.5 76.25,127.5 76.0714286,127.321429 L68.2142857,124.464286 C66.7857143,123.928571 66.0714286,122.321429 66.6071429,121.071429 C67.1428571,119.642857 68.75,118.928571 70,119.464286 L77.8571429,122.321429 C79.2857143,122.857143 80,124.464286 79.4642857,125.714286 C79.1071429,126.964286 78.0357143,127.5 76.9642857,127.5 L76.9642857,127.5 Z" id="Fill-7"></path>
            <path d="M115.357143,81.9642857 C114.464286,81.9642857 113.571429,81.6071429 113.035714,80.7142857 L108.75,73.75 C108.035714,72.5 108.392857,70.8928571 109.642857,70 C110.892857,69.2857143 112.5,69.6428571 113.392857,70.8928571 L117.678571,77.8571429 C118.392857,79.1071429 118.035714,80.7142857 116.785714,81.6071429 C116.25,81.7857143 115.892857,81.9642857 115.357143,81.9642857 L115.357143,81.9642857 Z" id="Fill-8"></path>
            <path d="M95.1785714,119.464286 C93.9285714,119.464286 92.6785714,118.392857 92.5,117.142857 L91.4285714,109.107143 C91.25,107.678571 92.3214286,106.25 93.75,106.071429 C95.1785714,105.892857 96.6071429,106.964286 96.7857143,108.392857 L97.8571429,116.428571 C98.0357143,117.857143 96.9642857,119.285714 95.5357143,119.464286 L95.1785714,119.464286 L95.1785714,119.464286 Z" id="Fill-9"></path>
            <path d="M105.892857,42.3214286 C105.178571,42.3214286 104.285714,41.9642857 103.75,41.25 L98.5714286,34.6428571 C97.6785714,33.3928571 97.8571429,31.7857143 99.1071429,30.8928571 C100.357143,30 101.964286,30.1785714 102.857143,31.4285714 L108.035714,38.0357143 C108.928571,39.2857143 108.75,40.8928571 107.5,41.7857143 C107.142857,42.1428571 106.607143,42.3214286 105.892857,42.3214286 L105.892857,42.3214286 Z" id="Fill-10"></path>
            <path d="M110.892857,54.4642857 C109.821429,54.4642857 108.75,53.75 108.392857,52.6785714 C107.857143,51.25 108.75,49.8214286 110.178571,49.2857143 L118.035714,46.7857143 C119.464286,46.25 120.892857,47.1428571 121.428571,48.5714286 C121.964286,50 121.071429,51.4285714 119.642857,51.9642857 L111.785714,54.4642857 L110.892857,54.4642857 L110.892857,54.4642857 Z" id="Fill-11"></path>
            <path d="M120,104.464286 C119.642857,104.464286 119.285714,104.285714 118.75,104.107143 C117.5,103.392857 116.964286,101.785714 117.5,100.535714 L121.071429,93.2142857 C121.785714,91.9642857 123.392857,91.4285714 124.642857,91.9642857 C125.892857,92.6785714 126.428571,94.2857143 125.892857,95.5357143 L122.321429,102.857143 C121.964286,103.928571 121.071429,104.464286 120,104.464286 L120,104.464286 Z" id="Fill-12"></path>
            <path d="M104.285714,101.964286 C103.214286,101.964286 102.142857,101.25 101.785714,100.178571 C101.25,98.75 102.142857,97.3214286 103.571429,96.7857143 L111.428571,94.2857143 C112.857143,93.75 114.285714,94.6428571 114.821429,96.0714286 C115.357143,97.5 114.464286,98.9285714 113.035714,99.4642857 L105.178571,101.964286 L104.285714,101.964286 L104.285714,101.964286 Z" id="Fill-13"></path>
            <path d="M28.0357143,58.75 C27.3214286,58.75 26.6071429,58.3928571 26.0714286,57.8571429 C25,56.7857143 25.1785714,55 26.25,54.1071429 L32.3214286,48.5714286 C33.3928571,47.5 35.1785714,47.6785714 36.0714286,48.75 C37.1428571,49.8214286 36.9642857,51.6071429 35.8928571,52.5 L29.8214286,58.0357143 C29.2857143,58.5714286 28.75,58.75 28.0357143,58.75 L28.0357143,58.75 Z" id="Fill-14"></path>
            <path d="M30,88.9285714 C29.8214286,88.9285714 29.8214286,88.9285714 30,88.9285714 C28.3928571,88.9285714 27.3214286,87.6785714 27.3214286,86.0714286 L27.6785714,77.8571429 C27.6785714,76.4285714 29.1071429,75.1785714 30.5357143,75.3571429 C31.9642857,75.3571429 33.2142857,76.6071429 33.0357143,78.2142857 L32.6785714,86.4285714 C32.5,87.8571429 31.4285714,88.9285714 30,88.9285714 L30,88.9285714 Z" id="Fill-15"></path>
            <path d="M37.5,70.5357143 C35.8928571,70.5357143 34.8214286,69.2857143 34.8214286,67.6785714 L35.1785714,59.4642857 C35.1785714,58.0357143 36.4285714,56.9642857 38.0357143,56.9642857 C39.4642857,56.9642857 40.7142857,58.2142857 40.5357143,59.8214286 L40.1785714,68.0357143 C40.1785714,69.4642857 38.9285714,70.5357143 37.5,70.5357143 L37.5,70.5357143 Z" id="Fill-16"></path>
            <path d="M45.5357143,100.714286 C44.6428571,100.714286 43.5714286,100.178571 43.2142857,99.2857143 L39.2857143,91.9642857 C38.5714286,90.7142857 39.1071429,89.1071429 40.3571429,88.3928571 C41.6071429,87.6785714 43.2142857,88.2142857 43.9285714,89.4642857 L47.6785714,96.7857143 C48.3928571,98.0357143 47.8571429,99.6428571 46.6071429,100.357143 C46.25,100.714286 45.8928571,100.714286 45.5357143,100.714286 L45.5357143,100.714286 Z" id="Fill-17"></path>
            <path d="M41.6071429,111.428571 C41.0714286,111.428571 40.3571429,111.25 39.8214286,110.892857 L33.3928571,105.714286 C32.3214286,104.821429 32.1428571,103.035714 33.0357143,101.964286 C33.9285714,100.892857 35.7142857,100.714286 36.7857143,101.607143 L43.2142857,106.785714 C44.2857143,107.678571 44.4642857,109.464286 43.5714286,110.535714 C43.2142857,111.071429 42.5,111.428571 41.6071429,111.428571 L41.6071429,111.428571 Z" id="Fill-18"></path>
            <path d="M124.285714,71.9642857 C123.571429,71.9642857 122.857143,71.6071429 122.321429,71.0714286 L116.785714,65 C115.714286,63.9285714 115.892857,62.1428571 116.964286,61.25 C118.035714,60.1785714 119.821429,60.3571429 120.714286,61.4285714 L126.25,67.5 C127.321429,68.5714286 127.142857,70.3571429 126.071429,71.25 C125.535714,71.7857143 125,71.9642857 124.285714,71.9642857 L124.285714,71.9642857 Z" id="Fill-19"></path>
            <path d="M58.5714286,115.892857 C57.1428571,115.892857 56.0714286,114.821429 55.8928571,113.571429 C55.7142857,112.142857 56.7857143,110.714286 58.2142857,110.714286 L66.4285714,109.821429 C67.8571429,109.642857 69.2857143,110.714286 69.2857143,112.142857 C69.4642857,113.571429 68.3928571,115 66.9642857,115 L58.75,115.892857 L58.5714286,115.892857 Z" id="Fill-20"></path>
            <path d="M50.5357143,33.75 C49.2857143,33.75 48.2142857,33.0357143 48.0357143,31.7857143 C47.6785714,30.3571429 48.5714286,28.9285714 50,28.5714286 L57.8571429,26.4285714 C59.2857143,26.0714286 60.7142857,26.9642857 61.0714286,28.3928571 C61.4285714,29.8214286 60.5357143,31.25 59.1071429,31.6071429 L51.25,33.75 C51.0714286,33.5714286 50.8928571,33.75 50.5357143,33.75 L50.5357143,33.75 Z" id="Fill-21"></path>
        </g>
    </g>
</svg>