<?xml version="1.0" encoding="UTF-8"?>
<svg width="238px" height="34px" viewBox="0 0 238 34" version="1.1" xmlns="http://www.w3.org/2000/svg" xmlns:xlink="http://www.w3.org/1999/xlink">
    <!-- Generator: Sketch 40.3 (33839) - http://www.bohemiancoding.com/sketch -->
    <title>buttons-dark</title>
    <desc>Created with Sketch.</desc>
    <defs></defs>
    <g id="Page-1" stroke="none" stroke-width="1" fill="none" fill-rule="evenodd">
        <g id="buttons-dark" fill="#C0C0C0">
            <g id="Page-1">
                <g id="buttons-light">
                    <g id="Page-1">
                        <g id="buttons-light">
                            <path d="M204,0 L204,34 L238,34 L238,0 L204,0 L204,0 L204,0 Z M221.585786,17 L217.464466,12.8786797 L218.87868,11.4644661 L224.414214,17 L221.585786,17 L221.585786,17 L221.585786,17 L221.585786,17 Z M221.585786,17 L217.464466,21.1213203 L218.87868,22.5355339 L224.414214,17 L221.585786,17 L221.585786,17 L221.585786,17 L221.585786,17 Z" id="right" transform="translate(221.000000, 17.000000) rotate(0.000000) translate(-221.000000, -17.000000) "></path>
                            <path d="M170,3.55271368e-15 L170,34 L204,34 L204,3.55271368e-15 L170,3.55271368e-15 L170,3.55271368e-15 L170,3.55271368e-15 Z M187.585786,17 L183.464466,12.8786797 L184.87868,11.4644661 L190.414214,17 L187.585786,17 L187.585786,17 L187.585786,17 L187.585786,17 Z M187.585786,17 L183.464466,21.1213203 L184.87868,22.5355339 L190.414214,17 L187.585786,17 L187.585786,17 L187.585786,17 L187.585786,17 Z" id="left" transform="translate(187.000000, 17.000000) rotate(180.000000) translate(-187.000000, -17.000000) "></path>
                            <path d="M136,0 L136,34 L170,34 L170,0 L136,0 L136,0 L136,0 Z M153.585786,17 L149.464466,12.8786797 L150.87868,11.4644661 L156.414214,17 L153.585786,17 L153.585786,17 L153.585786,17 L153.585786,17 Z M153.585786,17 L149.464466,21.1213203 L150.87868,22.5355339 L156.414214,17 L153.585786,17 L153.585786,17 L153.585786,17 L153.585786,17 Z" id="Scroll-down" transform="translate(153.000000, 17.000000) rotate(90.000000) translate(-153.000000, -17.000000) "></path>
                            <path d="M102,1.04094978e-15 L102,34 L136,34 L136,1.04094978e-15 L102,1.04094978e-15 L102,1.04094978e-15 L102,1.04094978e-15 Z M119.585786,17 L115.464466,12.8786797 L116.87868,11.4644661 L122.414214,17 L119.585786,17 L119.585786,17 L119.585786,17 L119.585786,17 Z M119.585786,17 L115.464466,21.1213203 L116.87868,22.5355339 L122.414214,17 L119.585786,17 L119.585786,17 L119.585786,17 L119.585786,17 Z" id="Scroll-top" transform="translate(119.000000, 17.000000) scale(1, -1) rotate(90.000000) translate(-119.000000, -17.000000) "></path>
                            <path d="M68,0 L68,34 L102,34 L102,0 L68,0 L68,0 L68,0 Z M79,16 L79,18 L81,18 L81,16 L79,16 L79,16 L79,16 Z M84,16 L84,18 L86,18 L86,16 L84,16 L84,16 L84,16 Z M89,16 L89,18 L91,18 L91,16 L89,16 L89,16 L89,16 Z" id="More"></path>
                            <path d="M0,0 L0,34 L34,34 L34,0 L0,0 L0,0 L0,0 Z M9,11 L9,13 L25,13 L25,11 L9,11 L9,11 L9,11 Z M9,16 L9,18 L25,18 L25,16 L9,16 L9,16 L9,16 Z M9,21 L9,23 L25,23 L25,21 L9,21 L9,21 L9,21 Z" id="Open"></path>
                            <path d="M51,18.4142136 L46.0502525,23.363961 L44.636039,21.9497475 L49.5857864,17 L44.636039,12.0502525 L46.0502525,10.636039 L51,15.5857864 L55.9497475,10.636039 L57.363961,12.0502525 L52.4142136,17 L57.363961,21.9497475 L55.9497475,23.363961 L51,18.4142136 L51,18.4142136 L51,18.4142136 Z M34,0 L34,34 L68,34 L68,0 L34,0 L34,0 L34,0 Z" id="Close"></path>
                        </g>
                    </g>
                </g>
            </g>
        </g>
    </g>
</svg>